<svg height="512" viewBox="0 0 60 52" width="512" xmlns="http://www.w3.org/2000/svg"><g id="010---Social-Messaging-Trap" fill="none"><g id="Layer_4" transform="translate(1 1)"><path id="Shape" d="m58 42v4c0 .5522847-.4477153 1-1 1h-22.81c-1.0733933 1.850413-3.0507942 2.9893688-5.19 2.9893688s-4.1166067-1.1389558-5.19-2.9893688h-22.81c-.55228475 0-1-.4477153-1-1v-4c0-.5522847.44771525-1 1-1h22.81c1.0733933-1.850413 3.0507942-2.9893688 5.19-2.9893688s4.1166067 1.1389558 5.19 2.9893688h22.81c.5522847 0 1 .4477153 1 1z" fill="#e8edfc"/><path id="Shape" d="m31.19 41h3c-1.070697-1.8545042-3.0486048-2.9978036-5.19-3-.5059051.0014972-1.0096992.0653111-1.5.19 1.5569408.404171 2.8863947 1.4165735 3.69 2.81z" fill="#cad9fc"/><path id="Shape" d="m27.5 49.81c.4903008.1246889.9940949.1885028 1.5.19 2.1413952-.0021964 4.119303-1.1454958 5.19-3h-3c-.8036053 1.3934265-2.1330592 2.405829-3.69 2.81z" fill="#cad9fc"/><path id="Shape" d="m57 41h-3c.5522847 0 1 .4477153 1 1v4c0 .5522847-.4477153 1-1 1h3c.5522847 0 1-.4477153 1-1v-4c0-.5522847-.4477153-1-1-1z" fill="#cad9fc"/><g fill="#e8edfc"><path id="Shape" d="m37 41 2.9-5.72c.0788496-.1690331.2484807-.2770838.435-.2770838s.3561504.1080507.435.2770838l2.9 5.72"/><path id="Shape" d="m43.67 41 2.89-5.72c.0822967-.1679223.2529956-.2743614.44-.2743614s.3577033.1064391.44.2743614l2.89 5.72"/><path id="Shape" d="m50.33 41 2.9-5.72c.0788496-.1690331.2484807-.2770838.435-.2770838s.3561504.1080507.435.2770838l2.9 5.72"/><path id="Shape" d="m21 41-2.9-5.72c-.0788496-.1690331-.2484807-.2770838-.435-.2770838s-.3561504.1080507-.435.2770838l-2.9 5.72"/><path id="Shape" d="m14.33 41-2.89-5.72c-.0822967-.1679223-.2529956-.2743614-.44-.2743614s-.3577033.1064391-.44.2743614l-2.89 5.72"/><path id="Shape" d="m7.67 41-2.9-5.72c-.07884955-.1690331-.24848074-.2770838-.435-.2770838s-.35615045.1080507-.435.2770838l-2.9 5.72"/><path id="Shape" d="m46 2v20c0 1.1045695-.8954305 2-2 2h-19.59c-.2623399.0011046-.5137394.1052558-.7.29l-4.09 4.09c-.3979587.3974636-.9375516.6204953-1.5.62-1.1708437 0-2.12-.9491563-2.12-2.12v-1.88c0-.5522847-.4477153-1-1-1h-1c-1.1045695 0-2-.8954305-2-2v-20c0-1.1045695.8954305-2 2-2h30c1.1045695 0 2 .8954305 2 2z"/></g><path id="Shape" d="m20.71 24.29-4.09 4.09c.3979587.3974636.9375516.6204953 1.5.62.5624484.0004953 1.1020413-.2225364 1.5-.62l4.09-4.09c.1862606-.1847442.4376601-.2888954.7-.29h-3c-.2623399.0011046-.5137394.1052558-.7.29z" fill="#cad9fc"/><path id="Shape" d="m44 0h-3c1.1045695 0 2 .8954305 2 2v20c0 1.1045695-.8954305 2-2 2h3c1.1045695 0 2-.8954305 2-2v-20c0-1.1045695-.8954305-2-2-2z" fill="#cad9fc"/><path id="Shape" d="m29.19 7.06c-.0394342.06755756-.1117755.10909463-.19.10909463s-.1505658-.04153707-.19-.10909463c-.7788801-1.2762873-2.1648244-2.05635433-3.66-2.06-2.37 0-4.15 1.49-4.15 4.48s1.78 4.19 3 5.38c.87.88 3.15 2.86 4.32 3.87.41331.3578334 1.02669.3578334 1.44 0 1.17-1 3.45-3 4.32-3.87 1.18-1.19 3-2.39 3-5.38s-1.86-4.48-4.23-4.48c-1.4951756.00364567-2.8811199.7837127-3.66 2.06z" fill="#a4c2f7"/><circle id="Oval" cx="29" cy="44" fill="#a4c2f7" r="2"/></g><g id="Layer_3" fill="#fff" transform="translate(1 1)"><path id="Shape" d="m1.43 41h-.43c-.55228475 0-1 .4477153-1 1v4c0 .5522847.44771525 1 1 1h3c-.55228475 0-1-.4477153-1-1v-4c0-.5522847.44771525-1 1-1h.43"/><path id="Shape" d="m14 24h1c.5522847 0 1 .4477153 1 1v1.88c-.0007563.8580404.5157739 1.6319285 1.3084577 1.9603886.7926839.3284602 1.7051944.146716 2.3115423-.4603886-.3965359-.398577-.6194018-.9377687-.62-1.5v-1.88c0-.5522847-.4477153-1-1-1h-1c-1.1045695 0-2-.8954305-2-2v-20c0-1.1045695.8954305-2 2-2h-3c-1.1045695 0-2 .8954305-2 2v20c0 1.1045695.8954305 2 2 2z"/></g><path id="Rectangle-path" d="m12 3h2v8h-2z" fill="#fff"/><g fill="#428dff"><path id="Shape" d="m33.85 5c-1.4624815-.00632128-2.8600169.60351237-3.85 1.68-.9899831-1.07648763-2.3875185-1.68632128-3.85-1.68-3.15 0-5.15 2.15-5.15 5.48.0043333 2.1958715 1.0230559 4.266536 2.76 5.61.17.16.34.32.49.48.89.89 3.13 2.84 4.38 3.92.7875428.6779046 1.9524572.6779046 2.74 0 1.25-1.08 3.49-3 4.38-3.92.15-.16.32-.32.49-.48 1.7369441-1.343464 2.7556667-3.4141285 2.76-5.61 0-3.33-2-5.48-5.15-5.48zm1 9.63-.54.53c-.87.88-3.27 3-4.26 3.81-.0388844.0381143-.1011156.0381143-.14 0-1-.85-3.39-2.93-4.26-3.81l-.54-.53c-1.3279611-.9650813-2.1126356-2.5083984-2.11-4.15 0-2.21 1.15-3.48 3.15-3.48 1.1659496-.00760733 2.2493713.60062939 2.85 1.6.2360291.3349817.6202166.534259 1.03.534259s.7939709-.1992773 1.03-.534259c.5895779-.98110533 1.6454517-1.58662433 2.79-1.6 2 0 3.15 1.27 3.15 3.48-.0020048 1.6452058-.7944778 3.189226-2.13 4.15z"/><path id="Shape" d="m16 20c0 .5522847.4477153 1 1 1h6c.5522847 0 1-.4477153 1-1s-.4477153-1-1-1h-6c-.5522847 0-1 .4477153-1 1z"/><path id="Shape" d="m36 20c0 .5522847.4477153 1 1 1h6c.5522847 0 1-.4477153 1-1s-.4477153-1-1-1h-6c-.5522847 0-1 .4477153-1 1z"/><path id="Shape" d="m30 42c-1.6568542 0-3 1.3431458-3 3s1.3431458 3 3 3 3-1.3431458 3-3-1.3431458-3-3-3zm0 4c-.5522847 0-1-.4477153-1-1s.4477153-1 1-1 1 .4477153 1 1-.4477153 1-1 1z"/><path id="Shape" d="m58.68 41.13-2.68-5.3c-.2519733-.5047636-.765858-.8254585-1.33-.83-.5661806-.002552-1.0835029.3202882-1.33.83l-2 4-2-4c-.2481407-.5083361-.7643328-.8307697-1.33-.8307697s-1.0818593.3224336-1.33.8307697l-2 4-2-4c-.2495798-.5163093-.7766255-.8403448-1.35-.83-.564142.0045415-1.0780267.3252364-1.33.83l-2.61 5.17h-1.65c-1.3092887-1.8757602-3.4524876-2.9934554-5.74-2.9934554s-4.4307113 1.1176952-5.74 2.9934554h-1.65l-2.61-5.17c-.2519733-.5047636-.765858-.8254585-1.33-.83-.5661806-.002552-1.0835029.3202882-1.33.83l-2 4-2-4c-.2481407-.5083361-.7643328-.8307697-1.33-.8307697s-1.0818593.3224336-1.33.8307697l-2 4-2-4c-.24957976-.5163093-.77662548-.8403448-1.35-.83-.564142.0045415-1.07802669.3252364-1.33.83l-2.68 5.3c-.78846043.2850448-1.31544683 1.0316089-1.32 1.87v4c0 1.1045695.8954305 2 2 2h22.26c1.3092887 1.8757602 3.4524876 2.9934554 5.74 2.9934554s4.4307113-1.1176952 5.74-2.9934554h22.26c1.1045695 0 2-.8954305 2-2v-4c-.0045532-.8383911-.5315396-1.5849552-1.32-1.87zm-4-3.5 1.69 3.37h-3.37zm-6.67 0 1.7 3.37h-3.42zm-6.67 0 1.66 3.37h-3.37zm-22.66 0 1.69 3.37h-3.37zm-6.67 0 1.7 3.37h-3.42zm-6.67 0 1.66 3.37h-3.37zm52.66 9.37h-21.35c.0029275-.4159444-.2519302-.7902666-.64-.94-.2492527-.0936734-.5255717-.0840711-.7677204.0266791s-.4301283.3135015-.5222796.5633209c-.0997385.2930803-.2304793.5746758-.39.84-.8957718 1.5371588-2.540881 2.482541-4.32 2.482541s-3.4242282-.9453822-4.32-2.482541c-.1595207-.2653242-.2902615-.5469197-.39-.84-.0920303-.2522554-.2816427-.4569008-.5261576-.567873-.244515-.1109722-.5233859-.1189461-.7738424-.022127-.3880698.1497334-.6429275.5240556-.64.94h-21.36v-4h21.35c-.0029275.4159444.2519302.7902666.64.94.1125104.0393549.2308058.0596341.35.06.4184725.0013593.7935361-.2579931.94-.65.0997385-.2930803.2304793-.5746758.39-.84.8957718-1.5371588 2.540881-2.482541 4.32-2.482541s3.4242282.9453822 4.32 2.482541c.1595207.2653242.2902615.5469197.39.84.1464639.3920069.5215275.6513593.94.65.1191942-.0003659.2374896-.0206451.35-.06.3880698-.1497334.6429275-.5240556.64-.94h21.37z"/><path id="Shape" d="m13 8c-.5522847 0-1-.44771525-1-1s.4477153-1 1-1 1 .44771525 1 1-.4477153 1-1 1z"/><path id="Shape" d="m15 26h1v1.88c0 1.7231284 1.3968716 3.12 3.12 3.12.8289051.0053724 1.6252113-.3225184 2.21-.91l4.08-4.09h19.59c1.6568542 0 3-1.3431458 3-3v-20c0-1.65685425-1.3431458-3-3-3h-30c-1.6568542 0-3 1.34314575-3 3 0 .55228475.4477153 1 1 1s1-.44771525 1-1 .4477153-1 1-1h30c.5522847 0 1 .44771525 1 1v20c0 .5522847-.4477153 1-1 1h-19.59c-.5295768.0022328-1.0366497.2144122-1.41.59l-4.09 4.08c-.3202459.3186724-.8005979.4137337-1.2180813.2410573s-.6903425-.5792753-.6919187-1.0310573v-1.88c0-1.1045695-.8954305-2-2-2h-1c-.5522847 0-1-.4477153-1-1v-12c0-.5522847-.4477153-1-1-1s-1 .4477153-1 1v12c0 1.6568542 1.3431458 3 3 3z"/></g></g></svg>